<?xml version="1.0" encoding="UTF-8"?>
<svg version="1.1" xmlns="http://www.w3.org/2000/svg" width="111" height="111">
<path d="M0 0 C0.77214844 -0.02191406 1.54429688 -0.04382812 2.33984375 -0.06640625 C10.56654067 1.83387812 16.5476314 8.61867364 22.26953125 14.40625 C23.1167424 15.25296265 23.96395355 16.09967529 24.83683777 16.9720459 C26.61610758 18.75364523 28.39171232 20.53891164 30.16381836 22.32763672 C32.87515548 25.06265683 35.59966173 27.7840204 38.32617188 30.50390625 C40.05808659 32.24139549 41.78923332 33.97965066 43.51953125 35.71875 C44.33202835 36.53033569 45.14452545 37.34192139 45.98164368 38.17810059 C46.73640488 38.9423938 47.49116608 39.70668701 48.26879883 40.49414062 C48.93083817 41.16078735 49.5928775 41.82743408 50.27497864 42.51428223 C53.93382689 46.70674571 55.49281438 49.91677434 55.5 55.5 C55.51933594 56.49902344 55.53867188 57.49804688 55.55859375 58.52734375 C54.27683728 66.36927114 47.01998698 71.91133049 41.66015625 77.265625 C40.74544052 78.18462585 39.83072479 79.10362671 38.88829041 80.05047607 C36.95926323 81.98693156 35.02645057 83.91951015 33.09106445 85.84960938 C30.61676377 88.3180992 28.15405618 90.79780936 25.69426823 93.28075027 C23.33566081 95.65765403 20.9660741 98.02349655 18.59765625 100.390625 C17.71731216 101.28017883 16.83696808 102.16973267 15.9299469 103.08624268 C15.10236374 103.90759705 14.27478058 104.72895142 13.42211914 105.57519531 C12.33768272 106.66057587 12.33768272 106.66057587 11.2313385 107.7678833 C7.7216146 110.6720226 4.21067366 111.85585427 -0.3125 111.9375 C-1.02148438 111.96585937 -1.73046875 111.99421875 -2.4609375 112.0234375 C-10.4715179 110.53250929 -15.99162088 103.96091453 -21.484375 98.44921875 C-22.37739319 97.56144241 -23.27041138 96.67366608 -24.19049072 95.75898743 C-26.07017242 93.88571033 -27.94642053 92.00961199 -29.81787109 90.12817383 C-32.20550884 87.7290321 -34.60866486 85.34614482 -37.01658249 82.96737957 C-39.32774961 80.67905904 -41.62398981 78.37586461 -43.921875 76.07421875 C-45.21094757 74.80199715 -45.21094757 74.80199715 -46.52606201 73.5040741 C-51.51179292 68.45973527 -55.41932282 64.26868452 -56.22265625 56.97265625 C-56.14917969 56.19792969 -56.07570312 55.42320313 -56 54.625 C-55.94972656 53.85285156 -55.89945313 53.08070312 -55.84765625 52.28515625 C-53.2563703 44.53354119 -46.14956179 38.46697795 -40.50390625 32.828125 C-39.70774399 32.02767761 -38.91158173 31.22723022 -38.09129333 30.40252686 C-36.41716173 28.72268478 -34.74044747 27.045413 -33.0612793 25.37060547 C-30.50225413 22.81475133 -27.95687689 20.24582222 -25.41210938 17.67578125 C-23.77685265 16.03825224 -22.14081128 14.40150634 -20.50390625 12.765625 C-19.74952774 12.00203674 -18.99514923 11.23844849 -18.21791077 10.45172119 C-7.66223282 -0.01274914 -7.66223282 -0.01274914 0 0 Z " fill="#01447C" transform="translate(55.9375,-0.5625)"/>
<path d="M0 0 C0.763125 0.495 1.52625 0.99 2.3125 1.5 C2.3125 5.5 2.3125 5.5 0.8125 7.25 C0.3175 7.6625 -0.1775 8.075 -0.6875 8.5 C-1.38875 8.17 -2.09 7.84 -2.8125 7.5 C-6.11647847 6.3507901 -8.21653112 5.99381704 -11.6875 6.5 C-14.70783737 8.43692369 -14.70783737 8.43692369 -16.6875 11.5 C-17.34904724 15.61629392 -17.08225662 17.72693494 -15.1875 21.4375 C-12.11481061 23.97246875 -10.46226994 24.04676755 -6.59375 23.80859375 C-4.33467768 23.44288327 -2.59298247 22.77032165 -0.6875 21.5 C1.3125 23.3125 1.3125 23.3125 3.3125 25.5 C3.3125 26.49 3.3125 27.48 3.3125 28.5 C1.3325 29.49 -0.6475 30.48 -2.6875 31.5 C-0.3775 32.16 1.9325 32.82 4.3125 33.5 C3.5625 38.25 3.5625 38.25 1.3125 40.5 C2.6325 41.16 3.9525 41.82 5.3125 42.5 C3.0025 42.5 0.6925 42.5 -1.6875 42.5 C0.1875 37.625 0.1875 37.625 1.3125 36.5 C0.3225 36.17 -0.6675 35.84 -1.6875 35.5 C-2.0175 37.81 -2.3475 40.12 -2.6875 42.5 C-5.71169525 41.91196203 -8.70508453 41.27321882 -11.6875 40.5 C-11.6875 41.16 -11.6875 41.82 -11.6875 42.5 C-13.3375 42.17 -14.9875 41.84 -16.6875 41.5 C-16.6875 40.84 -16.6875 40.18 -16.6875 39.5 C-17.3475 39.5 -18.0075 39.5 -18.6875 39.5 C-19.0175 40.49 -19.3475 41.48 -19.6875 42.5 C-19.6875 39.86 -19.6875 37.22 -19.6875 34.5 C-18.0375 34.5 -16.3875 34.5 -14.6875 34.5 C-14.6875 36.83333333 -14.6875 39.16666667 -14.6875 41.5 C-14.0275 41.5 -13.3675 41.5 -12.6875 41.5 C-12.3575 40.18 -12.0275 38.86 -11.6875 37.5 C-11.3575 38.16 -11.0275 38.82 -10.6875 39.5 C-10.0275 39.5 -9.3675 39.5 -8.6875 39.5 C-8.6875 38.51 -8.6875 37.52 -8.6875 36.5 C-9.3475 36.5 -10.0075 36.5 -10.6875 36.5 C-10.6875 35.18 -10.6875 33.86 -10.6875 32.5 C-11.27917969 32.32984375 -11.87085938 32.1596875 -12.48046875 31.984375 C-17.32407645 30.49889662 -20.91254826 29.03140647 -24.6875 25.5 C-24.0275 27.48 -23.3675 29.46 -22.6875 31.5 C-25.6575 31.5 -28.6275 31.5 -31.6875 31.5 C-32.3475 29.52 -33.0075 27.54 -33.6875 25.5 C-38.3075 25.5 -42.9275 25.5 -47.6875 25.5 C-48.0175 27.15 -48.3475 28.8 -48.6875 30.5 C-49.6875 31.5 -49.6875 31.5 -51.53515625 31.59765625 C-53.5859375 31.56510417 -55.63671875 31.53255208 -57.6875 31.5 C-57.04911344 27.56283204 -55.83966399 24.25190758 -54.21875 20.61328125 C-53.73019531 19.51048828 -53.24164063 18.40769531 -52.73828125 17.27148438 C-52.22652344 16.13001953 -51.71476562 14.98855469 -51.1875 13.8125 C-50.67574219 12.65943359 -50.16398437 11.50636719 -49.63671875 10.31835938 C-45.94729663 2.01959325 -45.94729663 2.01959325 -44.6875 -0.5 C-41.7175 -0.5 -38.7475 -0.5 -35.6875 -0.5 C-34.3675 2.14 -33.0475 4.78 -31.6875 7.5 C-31.3575 5.85 -31.0275 4.2 -30.6875 2.5 C-29.0375 2.5 -27.3875 2.5 -25.6875 2.5 C-25.6875 4.15 -25.6875 5.8 -25.6875 7.5 C-24.635625 6.1078125 -24.635625 6.1078125 -23.5625 4.6875 C-17.41661442 -2.53391556 -8.57808279 -3.48938961 0 0 Z " fill="#00A757" transform="translate(82.6875,33.5)"/>
<path d="M0 0 C2.97 0 5.94 0 9 0 C11.02055843 4.39251833 12.40895235 8.15340923 13 13 C15.475 13.495 15.475 13.495 18 14 C18.12117188 14.79664063 18.24234375 15.59328125 18.3671875 16.4140625 C19.61883475 24.34501378 19.61883475 24.34501378 22 32 C19.03 32 16.06 32 13 32 C12.34 30.02 11.68 28.04 11 26 C6.38 26 1.76 26 -3 26 C-3.33 27.65 -3.66 29.3 -4 31 C-5 32 -5 32 -6.84765625 32.09765625 C-8.8984375 32.06510417 -10.94921875 32.03255208 -13 32 C-12.36161344 28.06283204 -11.15216399 24.75190758 -9.53125 21.11328125 C-9.04269531 20.01048828 -8.55414062 18.90769531 -8.05078125 17.77148438 C-7.53902344 16.63001953 -7.02726562 15.48855469 -6.5 14.3125 C-5.98824219 13.15943359 -5.47648437 12.00636719 -4.94921875 10.81835938 C-1.25979663 2.51959325 -1.25979663 2.51959325 0 0 Z " fill="#00A557" transform="translate(38,33)"/>
<path d="M0 0 C-0.75 4.75 -0.75 4.75 -3 7 C-1.68 7.66 -0.36 8.32 1 9 C-1.31 9 -3.62 9 -6 9 C-4.125 4.125 -4.125 4.125 -3 3 C-3.99 2.67 -4.98 2.34 -6 2 C-6.33 4.31 -6.66 6.62 -7 9 C-10.02419525 8.41196203 -13.01758453 7.77321882 -16 7 C-16 7.66 -16 8.32 -16 9 C-17.65 8.67 -19.3 8.34 -21 8 C-21 7.34 -21 6.68 -21 6 C-21.66 6 -22.32 6 -23 6 C-23.33 6.99 -23.66 7.98 -24 9 C-24 6.36 -24 3.72 -24 1 C-22.35 1 -20.7 1 -19 1 C-19 3.33333333 -19 5.66666667 -19 8 C-18.34 8 -17.68 8 -17 8 C-16.67 6.68 -16.34 5.36 -16 4 C-15.67 4.66 -15.34 5.32 -15 6 C-14.34 6 -13.68 6 -13 6 C-13 5.01 -13 4.02 -13 3 C-13.66 3 -14.32 3 -15 3 C-15 1.68 -15 0.36 -15 -1 C-9.53891111 -2.4002792 -5.30723432 -1.42705634 0 0 Z " fill="#4777A0" transform="translate(87,67)"/>
<path d="M0 0 C1.65 0 3.3 0 5 0 C5 1.65 5 3.3 5 5 C5.99 5.33 6.98 5.66 8 6 C8.33 7.65 8.66 9.3 9 11 C5.7 11 2.4 11 -1 11 C-2.26264601 6.70700357 -1.62950412 4.12168689 0 0 Z " fill="#D8E8E8" transform="translate(52,36)"/>
<path d="M0 0 C1.65 0 3.3 0 5 0 C5 2.33333333 5 4.66666667 5 7 C5.66 7 6.32 7 7 7 C7.33 5.68 7.66 4.36 8 3 C8.33 3.66 8.66 4.32 9 5 C9.66 5 10.32 5 11 5 C11 4.01 11 3.02 11 2 C10.34 2 9.68 2 9 2 C9 1.34 9 0.68 9 0 C12 1 12 1 13.25 2.875 C14 5 14 5 13 8 C10.525 7.01 10.525 7.01 8 6 C8 6.66 8 7.32 8 8 C6.35 7.67 4.7 7.34 3 7 C3 6.34 3 5.68 3 5 C2.34 5 1.68 5 1 5 C0.67 5.99 0.34 6.98 0 8 C0 5.36 0 2.72 0 0 Z " fill="#BBCDDC" transform="translate(63,68)"/>
<path d="M0 0 C1.2065625 0.0309375 1.2065625 0.0309375 2.4375 0.0625 C2.1075 0.7225 1.7775 1.3825 1.4375 2.0625 C0.4475 2.0625 -0.5425 2.0625 -1.5625 2.0625 C-1.5625 3.3825 -1.5625 4.7025 -1.5625 6.0625 C0.4175 6.0625 2.3975 6.0625 4.4375 6.0625 C5.0975 4.0825 5.7575 2.1025 6.4375 0.0625 C7.0975 0.0625 7.7575 0.0625 8.4375 0.0625 C11.4375 5.8125 11.4375 5.8125 11.4375 8.0625 C10.7775 8.0625 10.1175 8.0625 9.4375 8.0625 C9.4375 7.4025 9.4375 6.7425 9.4375 6.0625 C8.1175 6.0625 6.7975 6.0625 5.4375 6.0625 C5.4375 6.7225 5.4375 7.3825 5.4375 8.0625 C-0.6171875 8.2578125 -0.6171875 8.2578125 -2.5625 8.0625 C-3.2225 7.4025 -3.8825 6.7425 -4.5625 6.0625 C-3.83457637 0.09352625 -3.83457637 0.09352625 0 0 Z " fill="#D0DCE7" transform="translate(47.5625,67.9375)"/>
<path d="M0 0 C2.5 0.125 2.5 0.125 3.5 1.125 C3.54080783 3.12458364 3.54254356 5.12545254 3.5 7.125 C0.625 7.75 0.625 7.75 -2.5 8.125 C-3.16 7.465 -3.82 6.805 -4.5 6.125 C-3.77607362 0.18880368 -3.77607362 0.18880368 0 0 Z " fill="#F0F4F7" transform="translate(12.5,51.875)"/>
<path d="M0 0 C0.99 0 1.98 0 3 0 C3.66 0.99 4.32 1.98 5 3 C5.33 2.01 5.66 1.02 6 0 C6.66 0 7.32 0 8 0 C8 2.64 8 5.28 8 8 C4.125 6.125 4.125 6.125 3 5 C2.67 5.99 2.34 6.98 2 8 C1.34 8 0.68 8 0 8 C0 5.36 0 2.72 0 0 Z " fill="#CAD8E4" transform="translate(34,68)"/>
<path d="M0 0 C0.66 0 1.32 0 2 0 C2.99 2.97 3.98 5.94 5 9 C2.36 9 -0.28 9 -3 9 C-2.01 6.03 -1.02 3.06 0 0 Z " fill="#004A79" transform="translate(41,43)"/>
<path d="M0 0 C3 1 3 1 4.25 2.875 C5 5 5 5 4 8 C1.525 7.01 1.525 7.01 -1 6 C-1 6.66 -1 7.32 -1 8 C-2.32 8 -3.64 8 -5 8 C-4.67 7.34 -4.34 6.68 -4 6 C-3.34 6.33 -2.68 6.66 -2 7 C-1.67 5.68 -1.34 4.36 -1 3 C-0.67 3.66 -0.34 4.32 0 5 C0.66 5 1.32 5 2 5 C2 4.01 2 3.02 2 2 C1.34 2 0.68 2 0 2 C0 1.34 0 0.68 0 0 Z " fill="#DFE7EE" transform="translate(72,68)"/>
<path d="M0 0 C1.98 0 3.96 0 6 0 C4.68 0.33 3.36 0.66 2 1 C2 1.66 2 2.32 2 3 C3.32 3 4.64 3 6 3 C6 3.66 6 4.32 6 5 C4.68 5 3.36 5 2 5 C2 5.99 2 6.98 2 8 C1.34 8 0.68 8 0 8 C0 5.36 0 2.72 0 0 Z " fill="#AFC4D6" transform="translate(24,68)"/>
<path d="M0 0 C1.98 0 3.96 0 6 0 C4.125 4.875 4.125 4.875 3 6 C4.32 6.66 5.64 7.32 7 8 C4.69 8 2.38 8 0 8 C1.875 3.125 1.875 3.125 3 2 C2.01 1.34 1.02 0.68 0 0 Z " fill="#E0E8EF" transform="translate(81,68)"/>
<path d="M0 0 C0.99 0.33 1.98 0.66 3 1 C3.6875 3.0625 3.6875 3.0625 4 5 C2.35 5 0.7 5 -1 5 C-1.33 3.68 -1.66 2.36 -2 1 C-1.34 0.67 -0.68 0.34 0 0 Z " fill="#9EBBCC" transform="translate(52,42)"/>
<path d="M0 0 C0.99 0 1.98 0 3 0 C3.33 2.97 3.66 5.94 4 9 C1.49701566 6.06171403 0.53069061 3.82097239 0 0 Z " fill="#004D78" transform="translate(53,47)"/>
</svg>
