<?xml version="1.0" encoding="UTF-8"?>
<svg version="1.1" xmlns="http://www.w3.org/2000/svg" width="221" height="142">
<path d="M0 0 C15.18 0 30.36 0 46 0 C48.0625 3.691875 50.125 7.38375 52.25 11.1875 C56.9464644 19.58125145 61.66478935 27.96180694 66.4375 36.3125 C66.89608398 37.11518311 67.35466797 37.91786621 67.82714844 38.74487305 C71.51550228 45.18488756 75.26023136 51.58896805 79 58 C79.33 38.86 79.66 19.72 80 0 C86.27 0 92.54 0 99 0 C99.33 23.43 99.66 46.86 100 71 C104.7953125 57.573125 104.7953125 57.573125 109.6875 43.875 C117.59643555 21.72998047 117.59643555 21.72998047 118.78060913 18.42132568 C119.65289565 15.97389365 120.51930644 13.52486972 121.37979126 11.07330322 C121.6073879 10.42791155 121.83498453 9.78251987 122.06947803 9.11757088 C122.70805016 7.30618293 123.34388515 5.49383075 123.97956848 3.681427 C125 1 125 1 126 0 C127.70772358 -0.08713831 129.41898649 -0.10700007 131.12890625 -0.09765625 C132.68061523 -0.09282227 132.68061523 -0.09282227 134.26367188 -0.08789062 C135.35228516 -0.07951172 136.44089844 -0.07113281 137.5625 -0.0625 C139.2012207 -0.05573242 139.2012207 -0.05573242 140.87304688 -0.04882812 C143.58208495 -0.03699826 146.29101599 -0.02051543 149 0 C149.2261348 0.64526138 149.45226959 1.29052277 149.68525696 1.95533752 C151.867519 8.1819362 154.05038044 14.40832441 156.23383427 20.63450527 C157.38744678 23.9241341 158.54083689 27.21384057 159.69372559 30.50372314 C166.19181165 49.05833485 166.19181165 49.05833485 172.77734375 67.58203125 C173.17479546 68.6926165 173.17479546 68.6926165 173.58027649 69.82563782 C174.74819121 73.0873468 175.92122336 76.3469535 177.1027832 79.60375977 C177.69385864 81.25009399 177.69385864 81.25009399 178.296875 82.9296875 C178.63041992 83.84991699 178.96396484 84.77014648 179.30761719 85.71826172 C180 88 180 88 180 91 C173.07 91 166.14 91 159 91 C156.65711876 85.29898898 154.70221219 79.95774266 153 74 C142.11 73.67 131.22 73.34 120 73 C119.34 75.97 118.68 78.94 118 82 C117.49222842 83.69800679 116.95929798 85.38928307 116.375 87.0625 C115.98441406 88.19365234 115.98441406 88.19365234 115.5859375 89.34765625 C115.39257812 89.89292969 115.19921875 90.43820313 115 91 C109.98320609 91.22324847 104.96932469 91.38612008 99.94873047 91.49438477 C98.24313996 91.53952418 96.53789548 91.60085724 94.83349609 91.67895508 C80.80155345 92.3056005 80.80155345 92.3056005 76.74121094 89.36303711 C75.11967046 86.98490228 74.07897447 84.666567 73 82 C71.96683993 80.15464184 70.91371139 78.32036047 69.84375 76.49609375 C68.72609616 74.47826017 67.61164157 72.45865202 66.5 70.4375 C59.8979909 58.53207652 53.0837769 46.76414886 46.17651367 35.03344727 C45.41142348 33.71109072 44.68322615 32.3664523 44 31 C43.67 50.8 43.34 70.6 43 91 C36.07 91 29.14 91 22 91 C18.63068749 86.50758332 18.63068749 86.50758332 18.59375 82.11328125 C18.57183594 81.17419922 18.54992187 80.23511719 18.52734375 79.26757812 C18.51832031 78.29240234 18.50929688 77.31722656 18.5 76.3125 C18.42005011 67.84352227 18.28528848 59.77808175 12.5 53.125 C11.675 52.42375 10.85 51.7225 10 51 C8.99289968 50.0071511 7.99131742 49.00860784 7 48 C7.53109375 47.731875 8.0621875 47.46375 8.609375 47.1875 C15.40278492 43.41889304 17.60353142 39.18940573 20 32 C20.7041974 24.31154965 20.44863356 17.51050024 16 11 C11.38216565 5.75896234 6.63214472 3.01332965 0 1 C0 0.67 0 0.34 0 0 Z M136 24 C134.57399373 28.39596774 133.14987791 32.79254154 131.72753906 37.18969727 C131.24303752 38.68661192 130.75801256 40.18335727 130.27246094 41.67993164 C129.57610798 43.82654621 128.88161717 45.97375535 128.1875 48.12109375 C127.96876221 48.79401962 127.75002441 49.4669455 127.5246582 50.16026306 C126.45356357 53.022725 126.45356357 53.022725 126 56 C132.93 56 139.86 56 147 56 C145.43766479 47.95729514 145.43766479 47.95729514 143.2734375 40.2109375 C142.809375 38.77041016 142.809375 38.77041016 142.3359375 37.30078125 C142.01882812 36.33527344 141.70171875 35.36976562 141.375 34.375 C140.88773438 32.86873047 140.88773438 32.86873047 140.390625 31.33203125 C139.59869492 28.88636483 138.80176173 26.4424572 138 24 C137.34 24 136.68 24 136 24 Z " fill="#FFFFFF" transform="translate(36,1)"/>
<path d="M0 0 C4.021875 -0.04125 8.04375 -0.0825 12.1875 -0.125 C13.44715576 -0.14320801 14.70681152 -0.16141602 16.00463867 -0.18017578 C17.50861206 -0.18766846 17.50861206 -0.18766846 19.04296875 -0.1953125 C20.06414795 -0.20578613 21.08532715 -0.21625977 22.13745117 -0.22705078 C26.16386407 0.09231502 29.01472305 0.90915766 31.75 3.9375 C33.98198962 7.62028287 34.17232193 10.76085662 34.31640625 14.98046875 C34.37356812 16.55284302 34.37356812 16.55284302 34.43188477 18.15698242 C34.47498779 19.48705322 34.51809082 20.81712402 34.5625 22.1875 C34.706875 26.415625 34.85125 30.64375 35 35 C23.45 35 11.9 35 0 35 C0 23.45 0 11.9 0 0 Z " fill="#FFFFFF" transform="translate(2,57)"/>
<path d="M0 0 C8.91 0 17.82 0 27 0 C27 25.08 27 50.16 27 76 C24.64802364 73.64802364 24.10584046 71.89682774 23.01635742 68.76269531 C22.44016914 67.11892914 22.44016914 67.11892914 21.8523407 65.44195557 C21.44087296 64.24939148 21.02940521 63.05682739 20.60546875 61.828125 C19.9616198 59.98441315 19.9616198 59.98441315 19.30476379 58.10345459 C18.15905268 54.82261326 17.0202127 51.53942769 15.88287354 48.25567627 C14.74278434 44.96729997 13.59690828 41.68094335 12.45117188 38.39453125 C11.15353238 34.67220866 9.85680265 30.94958246 8.5644989 27.22540283 C8.1709169 26.09173279 7.7773349 24.95806274 7.37182617 23.79003906 C6.98827972 22.68406372 6.60473328 21.57808838 6.20956421 20.43859863 C5.35086729 17.99745989 4.47956793 15.5642397 3.58950806 13.13464355 C3.35752118 12.4979562 3.12553431 11.86126884 2.88651752 11.20528793 C2.23654219 9.42597972 1.58105548 7.64868761 0.92524719 5.871521 C0 3 0 3 0 0 Z " fill="#FFFFFF" transform="translate(192,1)"/>
<path d="M0 0 C3.795 -0.04125 7.59 -0.0825 11.5 -0.125 C12.68013672 -0.14320801 13.86027344 -0.16141602 15.07617188 -0.18017578 C29.25249899 -0.2543598 29.25249899 -0.2543598 34.4375 4 C36.66001338 8.26722569 37.19963112 12.20885323 37 17 C35.55037913 21.19627095 33.93469937 23.86402034 30 26 C26.00966973 26.81781738 22.23135843 27.11952343 18.1640625 27.09765625 C17.2045166 27.09515869 16.2449707 27.09266113 15.25634766 27.09008789 C14.05800293 27.08098389 12.8596582 27.07187988 11.625 27.0625 C7.78875 27.041875 3.9525 27.02125 0 27 C0 18.09 0 9.18 0 0 Z " fill="#FFFFFF" transform="translate(2,16)"/>
<path d="M0 0 C2.64 0 5.28 0 8 0 C9.42842911 3.66452852 10.85247676 7.33072569 12.27246094 10.99853516 C12.99441847 12.86060415 13.71985238 14.72132407 14.4453125 16.58203125 C14.89648438 17.74863281 15.34765625 18.91523438 15.8125 20.1171875 C16.23144531 21.19597168 16.65039062 22.27475586 17.08203125 23.38623047 C18 26 18 26 18 28 C15.69 28 13.38 28 11 28 C10.34 26.02 9.68 24.04 9 22 C5.7 22 2.4 22 -1 22 C-1.66 23.98 -2.32 25.96 -3 28 C-5.31 28 -7.62 28 -10 28 C-8.89736164 24.83279914 -7.79260621 21.66634053 -6.6875 18.5 C-6.37876953 17.613125 -6.07003906 16.72625 -5.75195312 15.8125 C-3.90158202 10.51459536 -1.99190371 5.24636792 0 0 Z M3 10 C2.67 11.98 2.34 13.96 2 16 C3.32 16 4.64 16 6 16 C5.67 14.02 5.34 12.04 5 10 C4.34 10 3.68 10 3 10 Z " fill="#FFFFFF" transform="translate(10,113)"/>
<path d="M0 0 C1.98 0 3.96 0 6 0 C6 9.24 6 18.48 6 28 C3.69 28 1.38 28 -1 28 C-2.546875 28.3403125 -2.546875 28.3403125 -4.125 28.6875 C-7 29 -7 29 -9.75 27.875 C-12.42454374 25.64621355 -13.15828294 24.36686824 -14 21 C-14.45022422 15.95748875 -14.03241106 13.08209181 -11 9 C-9 7 -9 7 -5.5 6.8125 C-2 7 -2 7 0 8 C0 5.36 0 2.72 0 0 Z M-5 12 C-6.97122608 14.08919881 -6.97122608 14.08919881 -8 17 C-7.30059064 20.26814404 -7.30059064 20.26814404 -6 23 C-4.35 22.67 -2.7 22.34 -1 22 C0.19988045 16.71800407 0.19988045 16.71800407 -2 12 C-2.99 12 -3.98 12 -5 12 Z " fill="#FFFFFF" transform="translate(135,113)"/>
<path d="M0 0 C0.86625 0.00386719 1.7325 0.00773437 2.625 0.01171875 C5 0.3125 5 0.3125 8 2.3125 C8.4765625 5.39453125 8.4765625 5.39453125 8.625 9.125 C8.80977062 13.29993617 9.05284663 17.23663509 10 21.3125 C8.824375 21.291875 7.64875 21.27125 6.4375 21.25 C3.52052076 21.22934882 1.16334934 21.46588595 -1.75 22 C-5 22.3125 -5 22.3125 -7.4375 21.3125 C-9 19.3125 -9 19.3125 -9.4375 15.8125 C-9 12.3125 -9 12.3125 -8 10.4375 C-4.8045594 8.64006466 -1.63526893 8.61047286 2 8.3125 C2 7.3225 2 6.3325 2 5.3125 C1.29875 5.6425 0.5975 5.9725 -0.125 6.3125 C-3.26003116 7.40294562 -5.70563182 7.46572643 -9 7.3125 C-8.03430935 1.71149425 -5.6244331 -0.108806 0 0 Z M-3 14.3125 C-2.67 15.3025 -2.34 16.2925 -2 17.3125 C-0.68 16.9825 0.64 16.6525 2 16.3125 C2 14.9925 2 13.6725 2 12.3125 C-0.32357511 12.12759993 -0.32357511 12.12759993 -3 14.3125 Z " fill="#FFFFFF" transform="translate(110,119.6875)"/>
<path d="M0 0 C0.86625 -0.01675781 1.7325 -0.03351563 2.625 -0.05078125 C5.51744079 0.39164802 6.20370953 1.05120898 8 3.3125 C8.43237305 5.30541992 8.43237305 5.30541992 8.51171875 7.54296875 C8.56489258 8.74663086 8.56489258 8.74663086 8.61914062 9.97460938 C8.64169922 10.80798828 8.66425781 11.64136719 8.6875 12.5 C8.73874023 13.7674707 8.73874023 13.7674707 8.79101562 15.06054688 C8.87341471 17.14406649 8.93838645 19.22826216 9 21.3125 C7.38158203 21.29123047 7.38158203 21.29123047 5.73046875 21.26953125 C1.98612105 21.20573802 1.98612105 21.20573802 -1.6875 22 C-5 22.3125 -5 22.3125 -7.375 21.1875 C-9.40823338 18.84146148 -9.84914503 17.40502693 -10 14.3125 C-9.4375 12.125 -9.4375 12.125 -8 10.3125 C-4.38181456 8.73937589 -1.97906647 8.3125 2 8.3125 C2 7.3225 2 6.3325 2 5.3125 C1.29875 5.6425 0.5975 5.9725 -0.125 6.3125 C-3.26003116 7.40294562 -5.70563182 7.46572643 -9 7.3125 C-8.6875 4.9375 -8.6875 4.9375 -8 2.3125 C-4.78169935 0.16696623 -3.73213493 0.01666132 0 0 Z M-3 13.3125 C-2.67 14.6325 -2.34 15.9525 -2 17.3125 C-0.68 16.6525 0.64 15.9925 2 15.3125 C2 14.3225 2 13.3325 2 12.3125 C-0.21081851 12.20709074 -0.21081851 12.20709074 -3 13.3125 Z " fill="#FFFFFF" transform="translate(57,119.6875)"/>
<path d="M0 0 C3.76300221 3.21423106 4.91269187 4.91737913 5.3125 9.875 C5.209375 10.90625 5.10625 11.9375 5 13 C1.04 13 -2.92 13 -7 13 C-6.01 14.485 -6.01 14.485 -5 16 C-4.46375 15.649375 -3.9275 15.29875 -3.375 14.9375 C-0.26725237 13.71075751 1.79431703 14.27143569 5 15 C4.1059808 18.08842997 3.58228792 19.63399045 0.8125 21.375 C-3.76173964 22.3914977 -7.38428748 22.02045001 -11.375 19.5 C-13.76255482 15.82683874 -14.06975501 12.3325612 -14 8 C-13.26901042 4.94313448 -12.45250564 3.50471783 -10.375 1.1875 C-6.91022892 -0.54488554 -3.72758157 -0.90052466 0 0 Z M-6 5 C-6.33 6.32 -6.66 7.64 -7 9 C-5.02 9 -3.04 9 -1 9 C-1.66 7.68 -2.32 6.36 -3 5 C-3.99 5 -4.98 5 -6 5 Z " fill="#FFFFFF" transform="translate(194,120)"/>
<path d="M0 0 C4.39632503 2.27666832 4.39632503 2.27666832 6 5 C6.79554961 8.81749344 6.75747076 12.17821572 6 16 C3.49365205 19.79749689 1.90511184 20.73669474 -2.4375 22 C-6.53094236 22 -8.59065251 21.22004022 -12 19 C-14.82368571 14.76447144 -14.66653757 10.97522686 -14 6 C-10.45283395 0.20629545 -6.64915802 -1.02200021 0 0 Z M-6.625 6.125 C-8.59354843 8.80938422 -8.34515084 10.75558206 -8 14 C-7.34 14.66 -6.68 15.32 -6 16 C-2.69316534 15.71016731 -2.69316534 15.71016731 0 14 C0.42619701 9.78599965 0.42619701 9.78599965 -1.375 6.125 C-3.58469777 4.59520924 -4.41530223 4.59520924 -6.625 6.125 Z " fill="#FFFFFF" transform="translate(158,120)"/>
<path d="M0 0 C2.625 2.5 2.625 2.5 4 5 C3.34 5.66 2.68 6.32 2 7 C-0.1640625 6.9765625 -0.1640625 6.9765625 -2.625 6.625 C-3.44226563 6.51414062 -4.25953125 6.40328125 -5.1015625 6.2890625 C-6.04128906 6.14597656 -6.04128906 6.14597656 -7 6 C-6.37351563 6.19335938 -5.74703125 6.38671875 -5.1015625 6.5859375 C-4.28429687 6.84632812 -3.46703125 7.10671875 -2.625 7.375 C-1.81289062 7.63023438 -1.00078125 7.88546875 -0.1640625 8.1484375 C2 9 2 9 4 11 C4.56732724 17.24059959 4.56732724 17.24059959 2.75390625 19.66796875 C-0.428974 22.08525642 -4.10225639 22.1164528 -8 22 C-11.23051382 20.69404761 -12.52898085 19.78503192 -14.3125 16.8125 C-14.539375 16.214375 -14.76625 15.61625 -15 15 C-14 14 -14 14 -10.9375 13.9375 C-9.4834375 13.9684375 -9.4834375 13.9684375 -8 14 C-8 14.66 -8 15.32 -8 16 C-6.35 16 -4.7 16 -3 16 C-2.67 15.34 -2.34 14.68 -2 14 C-3.0725 13.87625 -4.145 13.7525 -5.25 13.625 C-11.03773585 12.66037736 -11.03773585 12.66037736 -13 11 C-14.12031684 7.21893066 -14.58868698 5.09327583 -12.6875 1.5625 C-8.58497056 -0.82269154 -4.62341669 -0.92929139 0 0 Z " fill="#FFFFFF" transform="translate(215,120)"/>
<path d="M0 0 C1.98 0 3.96 0 6 0 C6.33 5.28 6.66 10.56 7 16 C8.32 15.67 9.64 15.34 11 15 C12.41634833 12.16730334 12.3463005 9.52533562 12.5625 6.375 C12.64628906 5.18648438 12.73007813 3.99796875 12.81640625 2.7734375 C12.87699219 1.85820313 12.93757813 0.94296875 13 0 C14.98 0 16.96 0 19 0 C19 6.93 19 13.86 19 21 C16.69 21 14.38 21 12 21 C10.1746875 21.3403125 10.1746875 21.3403125 8.3125 21.6875 C5 22 5 22 2.625 20.75 C-0.81759946 17.0425852 -0.11631518 12.55237515 -0.0625 7.8125 C-0.05798828 7.06291016 -0.05347656 6.31332031 -0.04882812 5.54101562 C-0.03706354 3.69397617 -0.01912865 1.84697787 0 0 Z " fill="#FFFFFF" transform="translate(79,120)"/>
<path d="M0 0 C1.98 0 3.96 0 6 0 C7.32 3.3 8.64 6.6 10 10 C11.32 6.7 12.64 3.4 14 0 C16.31 0 18.62 0 21 0 C15.92307692 18.07692308 15.92307692 18.07692308 13 21 C11.00041636 21.04080783 8.99954746 21.04254356 7 21 C5.82504857 18.06574629 4.66149148 15.12710487 3.5 12.1875 C3.16613281 11.35412109 2.83226562 10.52074219 2.48828125 9.66210938 C2.17246094 8.85966797 1.85664063 8.05722656 1.53125 7.23046875 C1.23798828 6.49207764 0.94472656 5.75368652 0.64257812 4.99291992 C0 3 0 3 0 0 Z " fill="#FFFFFF" transform="translate(26,120)"/>
<path d="M0 0 C1.32 0 2.64 0 4 0 C4 0.99 4 1.98 4 3 C4.66 3 5.32 3 6 3 C6 4.32 6 5.64 6 7 C5.34 7 4.68 7 4 7 C4 8.98 4 10.96 4 13 C4.66 13 5.32 13 6 13 C6 14.32 6 15.64 6 17 C4.33388095 17.042721 2.66617115 17.04063832 1 17 C0 16 0 16 -0.09765625 13.93359375 C-0.08605469 13.10988281 -0.07445313 12.28617188 -0.0625 11.4375 C-0.05347656 10.61121094 -0.04445313 9.78492187 -0.03515625 8.93359375 C-0.02355469 8.29550781 -0.01195313 7.65742187 0 7 C-0.99 7.66 -1.98 8.32 -3 9 C-2.67 9.33 -2.34 9.66 -2 10 C-1.8125 12.4375 -1.8125 12.4375 -2 15 C-4 17 -4 17 -5.875 17.265625 C-6.57625 17.26046875 -7.2775 17.2553125 -8 17.25 C-9.051875 17.25773437 -9.051875 17.25773437 -10.125 17.265625 C-12 17 -12 17 -14 15 C-13.67751743 13.66400079 -13.34227417 12.33106622 -13 11 C-13.185625 10.154375 -13.37125 9.30875 -13.5625 8.4375 C-14 6 -14 6 -12 3 C-9.25373178 2.86711605 -6.72501077 2.8611787 -4 3 C-2.68 3 -1.36 3 0 3 C0 2.01 0 1.02 0 0 Z M-9 6 C-9 6.66 -9 7.32 -9 8 C-8.01 7.67 -7.02 7.34 -6 7 C-6.99 6.67 -7.98 6.34 -9 6 Z M-10 12 C-8.515 12.99 -8.515 12.99 -7 14 C-7 13.34 -7 12.68 -7 12 C-7.99 12 -8.98 12 -10 12 Z " fill="#FFFFFF" transform="translate(66,95)"/>
<path d="M0 0 C1.65 0 3.3 0 5 0 C6.32 2.31 7.64 4.62 9 7 C9.33 4.69 9.66 2.38 10 0 C11.65 0 13.3 0 15 0 C15 5.94 15 11.88 15 18 C13.35 18 11.7 18 10 18 C8.41796875 16.25 8.41796875 16.25 7.1875 14 C6.55908203 12.88625 6.55908203 12.88625 5.91796875 11.75 C5.61503906 11.1725 5.31210938 10.595 5 10 C4.67 12.64 4.34 15.28 4 18 C2.68 18 1.36 18 0 18 C0 12.06 0 6.12 0 0 Z " fill="#FFFFFF" transform="translate(97,94)"/>
<path d="M0 0 C3.66666667 0 7.33333333 0 11 0 C12.7325 -0.0928125 12.7325 -0.0928125 14.5 -0.1875 C18 0 18 0 19.9375 1 C21.65886567 4.24021772 21.52960415 7.41957756 21 11 C19.9375 13 19.9375 13 18 14 C14.5906288 14.36528977 12.11976176 14.6140629 9.0625 12.9375 C7.44520395 9.98831309 7.81369862 7.29132441 8 4 C7.01 4.33 6.02 4.66 5 5 C4.67 7.97 4.34 10.94 4 14 C2.68 14 1.36 14 0 14 C0 9.38 0 4.76 0 0 Z M13 4 C12.67 5.65 12.34 7.3 12 9 C13.32 9.33 14.64 9.66 16 10 C16.33 8.35 16.66 6.7 17 5 C15.68 4.67 14.36 4.34 13 4 Z " fill="#FFFFFF" transform="translate(74,98)"/>
<path d="M0 0 C0.90105469 0.02707031 1.80210938 0.05414063 2.73046875 0.08203125 C3.76107422 0.13423828 3.76107422 0.13423828 4.8125 0.1875 C4.89321788 2.97974073 4.95285408 5.76966566 5 8.5625 C5.03770508 9.75359375 5.03770508 9.75359375 5.07617188 10.96875 C5.10254405 13.04336148 4.96736462 15.11850865 4.8125 17.1875 C1.11763897 19.65074069 -0.82043092 19.57741688 -5.1875 19.1875 C-7.125 17.8125 -7.125 17.8125 -8.1875 16.1875 C-8.1875 15.5275 -8.1875 14.8675 -8.1875 14.1875 C-7.5275 13.8575 -6.8675 13.5275 -6.1875 13.1875 C-6.8475 12.1975 -7.5075 11.2075 -8.1875 10.1875 C-8.74181913 3.97912569 -8.74181913 3.97912569 -6.9921875 1.48046875 C-4.55875898 -0.26296164 -2.96092628 -0.11536076 0 0 Z M-3.1875 4.1875 C-3.1875 5.8375 -3.1875 7.4875 -3.1875 9.1875 C-1.8675 9.1875 -0.5475 9.1875 0.8125 9.1875 C0.4825 7.5375 0.1525 5.8875 -0.1875 4.1875 C-1.1775 4.1875 -2.1675 4.1875 -3.1875 4.1875 Z " fill="#FFFFFF" transform="translate(39.1875,97.8125)"/>
<path d="M0 0 C11.46189821 -0.36973865 11.46189821 -0.36973865 13.91015625 1.3125 C15.70965439 4.0988197 14.52093061 6.82232327 14 10 C14.17539358 12.71148998 14.57546104 15.31125325 15 18 C13.35 18 11.7 18 10 18 C9.67 16.02 9.34 14.04 9 12 C7.35 11.67 5.7 11.34 4 11 C4 13.31 4 15.62 4 18 C2.68 18 1.36 18 0 18 C0 12.06 0 6.12 0 0 Z M4 4 C4 4.99 4 5.98 4 7 C5.98 7 7.96 7 10 7 C10 6.01 10 5.02 10 4 C8.02 4 6.04 4 4 4 Z " fill="#FFFFFF" transform="translate(2,94)"/>
<path d="M0 0 C4.29 0 8.58 0 13 0 C13.33 0.66 13.66 1.32 14 2 C13.3125 4.0625 13.3125 4.0625 12 6 C9.9375 6.625 9.9375 6.625 8 7 C6.64908472 9.70183055 6.66141942 12.11808206 6.4375 15.125 C6.35371094 16.22070312 6.26992187 17.31640625 6.18359375 18.4453125 C6.12300781 19.28835937 6.06242188 20.13140625 6 21 C4.02 21 2.04 21 0 21 C0 14.07 0 7.14 0 0 Z " fill="#FFFFFF" transform="translate(167,120)"/>
<path d="M0 0 C1.98 0 3.96 0 6 0 C6 9.24 6 18.48 6 28 C4.02 28 2.04 28 0 28 C0 18.76 0 9.52 0 0 Z " fill="#FFFFFF" transform="translate(69,113)"/>
<path d="M0 0 C1.32 0 2.64 0 4 0 C4 5.94 4 11.88 4 18 C-2.58841597 18.42781922 -2.58841597 18.42781922 -6 18 C-8.1875 15.9375 -8.1875 15.9375 -9 13 C-8.67857143 6.67857143 -8.67857143 6.67857143 -6 4 C-2.875 3.875 -2.875 3.875 0 4 C0 2.68 0 1.36 0 0 Z M-3 8 C-3.33 9.65 -3.66 11.3 -4 13 C-2.68 13 -1.36 13 0 13 C-0.33 11.35 -0.66 9.7 -1 8 C-1.66 8 -2.32 8 -3 8 Z " fill="#FFFFFF" transform="translate(203,94)"/>
<path d="M0 0 C1.875 -0.36328125 1.875 -0.36328125 4 -0.3125 C4.70125 -0.30863281 5.4025 -0.30476563 6.125 -0.30078125 C8 0 8 0 10 2 C10.4140625 4.8203125 10.4140625 4.8203125 10.625 8.125 C10.69976562 9.22070312 10.77453125 10.31640625 10.8515625 11.4453125 C10.92503906 12.70988281 10.92503906 12.70988281 11 14 C9.02090602 14.02686553 7.04171029 14.04633375 5.0625 14.0625 C3.96035156 14.07410156 2.85820313 14.08570312 1.72265625 14.09765625 C-1 14 -1 14 -2 13 C-2.04443347 11.00049364 -2.03920815 8.99961564 -2 7 C-2 5.68 -2 4.36 -2 3 C-1.34 2.01 -0.68 1.02 0 0 Z M4 8 C3.34 8.66 2.68 9.32 2 10 C2.99 10 3.98 10 5 10 C5.33 9.34 5.66 8.68 6 8 C5.34 8 4.68 8 4 8 Z " fill="#FFFFFF" transform="translate(115,98)"/>
<path d="M0 0 C0.94552734 0.16242188 0.94552734 0.16242188 1.91015625 0.328125 C4.19078453 3.74906742 4.12940632 5.00999722 4.03515625 9.015625 C4.01710937 10.00949219 3.9990625 11.00335938 3.98046875 12.02734375 C3.94566406 13.16623047 3.94566406 13.16623047 3.91015625 14.328125 C2.09773573 14.35499779 0.28520392 14.37446215 -1.52734375 14.390625 C-2.53667969 14.40222656 -3.54601562 14.41382812 -4.5859375 14.42578125 C-7.08984375 14.328125 -7.08984375 14.328125 -8.08984375 13.328125 C-8.13238731 11.32857754 -8.13065158 9.32770864 -8.08984375 7.328125 C-8.08984375 6.668125 -8.08984375 6.008125 -8.08984375 5.328125 C-6.92360368 -0.1698639 -5.62395836 0.20413642 0 0 Z M-3.08984375 8.328125 C-3.41984375 9.318125 -3.74984375 10.308125 -4.08984375 11.328125 C-3.09984375 10.998125 -2.10984375 10.668125 -1.08984375 10.328125 C-1.08984375 9.668125 -1.08984375 9.008125 -1.08984375 8.328125 C-1.74984375 8.328125 -2.40984375 8.328125 -3.08984375 8.328125 Z " fill="#FFFFFF" transform="translate(183.08984375,97.671875)"/>
<path d="M0 0 C3 2 3 2 3.8125 5.375 C3.9921081 8.84742335 4.0091148 10.25068501 2 13 C-1.04983996 14.52491998 -3.6423369 14.23562548 -7 14 C-8.9375 13 -8.9375 13 -10 11 C-10.52960415 7.41957756 -10.65886567 4.24021772 -8.9375 1 C-5.90246787 -0.56646819 -3.34866332 -0.2989878 0 0 Z M-5 4 C-6.01111093 7.04913228 -6.01111093 7.04913228 -5 10 C-3.68 9.67 -2.36 9.34 -1 9 C-1.33 7.35 -1.66 5.7 -2 4 C-2.99 4 -3.98 4 -5 4 Z " fill="#FFFFFF" transform="translate(156,98)"/>
<path d="M0 0 C3.5 0.5 3.5 0.5 5.4375 1.6875 C6.82851983 4.06041618 6.71917317 5.79686424 6.5 8.5 C3.86 8.5 1.22 8.5 -1.5 8.5 C-1.5 9.16 -1.5 9.82 -1.5 10.5 C1.14 10.17 3.78 9.84 6.5 9.5 C6.125 11.4375 6.125 11.4375 5.5 13.5 C2.72899606 14.88550197 0.5665294 14.6877467 -2.5 14.5 C-5.5 12.5 -5.5 12.5 -6.375 9.1875 C-6.5 5.5 -6.5 5.5 -5.5 2.5625 C-3.5 0.5 -3.5 0.5 0 0 Z " fill="#FFFFFF" transform="translate(214.5,97.5)"/>
<path d="M0 0 C1.875 1.1875 1.875 1.1875 3 3 C3.1875 5.6875 3.1875 5.6875 3 8 C1.68 8.33 0.36 8.66 -1 9 C0.32 9 1.64 9 3 9 C2.125 12.875 2.125 12.875 1 14 C-5.46153846 14.35897436 -5.46153846 14.35897436 -9 12 C-9.3984375 9.6875 -9.3984375 9.6875 -9.375 7 C-9.38273437 6.113125 -9.39046875 5.22625 -9.3984375 4.3125 C-9.26695313 3.549375 -9.13546875 2.78625 -9 2 C-5.53076119 -0.31282587 -4.07794425 -0.42478586 0 0 Z " fill="#FFFFFF" transform="translate(27,98)"/>
<path d="M0 0 C1.60875 -0.020625 3.2175 -0.04125 4.875 -0.0625 C5.77992188 -0.07410156 6.68484375 -0.08570312 7.6171875 -0.09765625 C10 0 10 0 12 1 C12 5.29 12 9.58 12 14 C10.68 14 9.36 14 8 14 C8 10.7 8 7.4 8 4 C7.01 4.33 6.02 4.66 5 5 C4.67 7.97 4.34 10.94 4 14 C2.68 14 1.36 14 0 14 C0 9.38 0 4.76 0 0 Z " fill="#FFFFFF" transform="translate(161,98)"/>
<path d="M0 0 C3.5 0.5 3.5 0.5 5.4375 2.375 C6.5 4.5 6.5 4.5 6.5 6.5 C4.85 6.5 3.2 6.5 1.5 6.5 C1.5 5.84 1.5 5.18 1.5 4.5 C0.51 4.5 -0.48 4.5 -1.5 4.5 C-1.5 6.48 -1.5 8.46 -1.5 10.5 C-0.51 10.5 0.48 10.5 1.5 10.5 C1.5 9.84 1.5 9.18 1.5 8.5 C3.15 8.5 4.8 8.5 6.5 8.5 C4.625 13.375 4.625 13.375 3.5 14.5 C0.125 14.8125 0.125 14.8125 -3.5 14.5 C-6.13769276 12.28774156 -6.44923246 10.90614032 -6.875 7.5 C-6.24091861 2.4273489 -5.17674871 0.73953553 0 0 Z " fill="#FFFFFF" transform="translate(132.5,97.5)"/>
<path d="M0 0 C1.32 0 2.64 0 4 0 C4 5.94 4 11.88 4 18 C2.68 18 1.36 18 0 18 C0 12.06 0 6.12 0 0 Z " fill="#FFFFFF" transform="translate(189,94)"/>
<path d="M0 0 C1.32 0 2.64 0 4 0 C4 5.94 4 11.88 4 18 C2.68 18 1.36 18 0 18 C0 12.06 0 6.12 0 0 Z " fill="#FFFFFF" transform="translate(140,94)"/>
<path d="M0 0 C1.32 0 2.64 0 4 0 C4 5.94 4 11.88 4 18 C2.68 18 1.36 18 0 18 C0 12.06 0 6.12 0 0 Z " fill="#FFFFFF" transform="translate(46,94)"/>
</svg>
